<?xml version="1.0" encoding="UTF-8"?>
<svg id="Layer_2" data-name="Layer 2" xmlns="http://www.w3.org/2000/svg" viewBox="0 0 122.37 85.75">
  <defs>
    <style>
      .cls-1 {
        fill: #fff;
        stroke: #000;
        stroke-miterlimit: 10;
        stroke-width: .5px;
      }
    </style>
  </defs>
  <g id="Layer_1-2" data-name="Layer 1">
    <rect class="cls-1" x="12.78" y=".25" width="7.24" height="7.24" rx="1.31" ry="1.31"/>
    <rect class="cls-1" x="21.74" y=".25" width="7.24" height="7.24" rx="1.31" ry="1.31"/>
    <rect class="cls-1" x="30.69" y=".25" width="7.24" height="7.24" rx="1.31" ry="1.31"/>
    <rect class="cls-1" x="39.65" y=".25" width="7.24" height="7.24" rx="1.31" ry="1.31"/>
    <rect class="cls-1" x="48.61" y=".25" width="7.24" height="7.24" rx="1.31" ry="1.31"/>
    <rect class="cls-1" x="66.52" y=".25" width="7.24" height="7.24" rx="1.31" ry="1.31"/>
    <rect class="cls-1" x="75.48" y=".25" width="7.24" height="7.24" rx="1.31" ry="1.31"/>
    <rect class="cls-1" x="84.43" y=".25" width="7.24" height="7.24" rx="1.31" ry="1.31"/>
    <rect class="cls-1" x="93.39" y=".25" width="7.24" height="7.24" rx="1.31" ry="1.31"/>
    <rect class="cls-1" x="102.35" y=".25" width="7.24" height="7.24" rx="1.31" ry="1.31"/>
    <rect class="cls-1" x="12.78" y="9.3" width="7.24" height="7.24" rx="1.31" ry="1.31"/>
    <rect class="cls-1" x="21.74" y="9.3" width="7.24" height="7.24" rx="1.31" ry="1.31"/>
    <rect class="cls-1" x="30.69" y="9.3" width="7.24" height="7.24" rx="1.31" ry="1.31"/>
    <rect class="cls-1" x="39.65" y="9.3" width="7.24" height="7.24" rx="1.31" ry="1.31"/>
    <rect class="cls-1" x="48.61" y="9.3" width="7.24" height="7.24" rx="1.31" ry="1.31"/>
    <rect class="cls-1" x="66.52" y="9.3" width="7.24" height="7.24" rx="1.31" ry="1.31"/>
    <rect class="cls-1" x="75.48" y="9.3" width="7.24" height="7.24" rx="1.31" ry="1.31"/>
    <rect class="cls-1" x="84.43" y="9.3" width="7.24" height="7.24" rx="1.31" ry="1.31"/>
    <rect class="cls-1" x="93.39" y="9.3" width="7.24" height="7.24" rx="1.31" ry="1.31"/>
    <rect class="cls-1" x="102.35" y="9.3" width="7.24" height="7.24" rx="1.31" ry="1.31"/>
    <rect class="cls-1" x="12.78" y="18.35" width="7.24" height="7.24" rx="1.31" ry="1.31"/>
    <rect class="cls-1" x="21.74" y="18.35" width="7.24" height="7.24" rx="1.31" ry="1.31"/>
    <rect class="cls-1" x="30.69" y="18.35" width="7.24" height="7.24" rx="1.31" ry="1.31"/>
    <rect class="cls-1" x="39.65" y="18.35" width="7.24" height="7.24" rx="1.31" ry="1.31"/>
    <rect class="cls-1" x="48.61" y="18.35" width="7.24" height="7.24" rx="1.31" ry="1.31"/>
    <rect class="cls-1" x="66.52" y="18.35" width="7.24" height="7.24" rx="1.31" ry="1.31"/>
    <rect class="cls-1" x="75.48" y="18.35" width="7.24" height="7.24" rx="1.31" ry="1.31"/>
    <rect class="cls-1" x="84.43" y="18.35" width="7.24" height="7.24" rx="1.31" ry="1.31"/>
    <rect class="cls-1" x="93.39" y="18.35" width="7.24" height="7.24" rx="1.31" ry="1.31"/>
    <rect class="cls-1" x="102.35" y="18.35" width="7.24" height="7.24" rx="1.31" ry="1.31"/>
    <rect class="cls-1" x="12.78" y="27.4" width="7.24" height="7.24" rx="1.31" ry="1.31"/>
    <rect class="cls-1" x="21.74" y="27.4" width="7.24" height="7.24" rx="1.31" ry="1.31"/>
    <rect class="cls-1" x="30.69" y="27.4" width="7.24" height="7.24" rx="1.31" ry="1.31"/>
    <rect class="cls-1" x="39.65" y="27.4" width="7.24" height="7.24" rx="1.31" ry="1.31"/>
    <rect class="cls-1" x="48.61" y="27.4" width="7.24" height="7.24" rx="1.31" ry="1.31"/>
    <rect class="cls-1" x="66.52" y="27.4" width="7.24" height="7.24" rx="1.31" ry="1.31"/>
    <rect class="cls-1" x="75.48" y="27.4" width="7.24" height="7.24" rx="1.31" ry="1.31"/>
    <rect class="cls-1" x="84.43" y="27.4" width="7.24" height="7.24" rx="1.31" ry="1.31"/>
    <rect class="cls-1" x="93.39" y="27.4" width="7.24" height="7.24" rx="1.31" ry="1.31"/>
    <rect class="cls-1" x="102.35" y="27.4" width="7.24" height="7.24" rx="1.31" ry="1.31"/>
    <rect class="cls-1" x="12.78" y="36.45" width="7.24" height="7.24" rx="1.31" ry="1.31"/>
    <rect class="cls-1" x="21.74" y="36.45" width="7.24" height="7.24" rx="1.31" ry="1.31"/>
    <rect class="cls-1" x="30.69" y="36.45" width="7.24" height="7.24" rx="1.31" ry="1.31"/>
    <rect class="cls-1" x="39.65" y="36.45" width="7.24" height="7.24" rx="1.31" ry="1.31"/>
    <rect class="cls-1" x="48.61" y="36.45" width="7.24" height="7.24" rx="1.31" ry="1.31"/>
    <rect class="cls-1" x="66.52" y="36.45" width="7.24" height="7.24" rx="1.31" ry="1.31"/>
    <rect class="cls-1" x="75.48" y="36.45" width="7.24" height="7.24" rx="1.31" ry="1.31"/>
    <rect class="cls-1" x="84.43" y="36.45" width="7.24" height="7.24" rx="1.31" ry="1.31"/>
    <rect class="cls-1" x="93.39" y="36.45" width="7.24" height="7.24" rx="1.31" ry="1.31"/>
    <rect class="cls-1" x="102.35" y="36.45" width="7.24" height="7.24" rx="1.31" ry="1.31"/>
    <rect class="cls-1" x="12.78" y="45.5" width="7.24" height="7.24" rx="1.31" ry="1.31"/>
    <rect class="cls-1" x="21.74" y="45.5" width="7.24" height="7.24" rx="1.31" ry="1.31"/>
    <rect class="cls-1" x="30.69" y="45.5" width="7.24" height="7.24" rx="1.31" ry="1.31"/>
    <rect class="cls-1" x="39.65" y="45.5" width="7.24" height="7.24" rx="1.31" ry="1.31"/>
    <rect class="cls-1" x="48.61" y="45.5" width="7.24" height="7.24" rx="1.31" ry="1.31"/>
    <rect class="cls-1" x="66.52" y="45.5" width="7.24" height="7.24" rx="1.31" ry="1.31"/>
    <rect class="cls-1" x="75.48" y="45.5" width="7.24" height="7.24" rx="1.31" ry="1.31"/>
    <rect class="cls-1" x="84.43" y="45.5" width="7.24" height="7.24" rx="1.31" ry="1.31"/>
    <rect class="cls-1" x="93.39" y="45.5" width="7.24" height="7.24" rx="1.31" ry="1.31"/>
    <rect class="cls-1" x="102.35" y="45.5" width="7.24" height="7.24" rx="1.31" ry="1.31"/>
    <rect class="cls-1" x="12.78" y="54.54" width="7.24" height="7.24" rx="1.31" ry="1.31"/>
    <rect class="cls-1" x="21.74" y="54.54" width="7.24" height="7.24" rx="1.31" ry="1.31"/>
    <rect class="cls-1" x="30.69" y="54.54" width="7.24" height="7.24" rx="1.31" ry="1.31"/>
    <rect class="cls-1" x=".25" y="69.21" width="7.24" height="7.24" rx="1.31" ry="1.31"/>
    <rect class="cls-1" x="9.21" y="69.21" width="7.24" height="7.24" rx="1.31" ry="1.31"/>
    <rect class="cls-1" x="18.16" y="69.21" width="7.24" height="7.24" rx="1.31" ry="1.31"/>
    <rect class="cls-1" x=".25" y="78.26" width="7.24" height="7.24" rx="1.31" ry="1.31"/>
    <rect class="cls-1" x="9.21" y="78.26" width="7.24" height="7.24" rx="1.31" ry="1.31"/>
    <rect class="cls-1" x="18.16" y="78.26" width="7.24" height="7.24" rx="1.31" ry="1.31"/>
    <rect class="cls-1" x="32.46" y="69.21" width="7.24" height="7.24" rx="1.31" ry="1.31"/>
    <rect class="cls-1" x="41.42" y="69.21" width="7.24" height="7.24" rx="1.31" ry="1.31"/>
    <rect class="cls-1" x="50.37" y="69.21" width="7.24" height="7.24" rx="1.31" ry="1.31"/>
    <rect class="cls-1" x="32.46" y="78.26" width="7.24" height="7.24" rx="1.31" ry="1.31"/>
    <rect class="cls-1" x="41.42" y="78.26" width="7.24" height="7.24" rx="1.31" ry="1.31"/>
    <rect class="cls-1" x="50.37" y="78.26" width="7.24" height="7.24" rx="1.31" ry="1.31"/>
    <rect class="cls-1" x="64.76" y="69.21" width="7.24" height="7.24" rx="1.31" ry="1.31"/>
    <rect class="cls-1" x="73.71" y="69.21" width="7.24" height="7.24" rx="1.31" ry="1.31"/>
    <rect class="cls-1" x="82.67" y="69.21" width="7.24" height="7.24" rx="1.31" ry="1.31"/>
    <rect class="cls-1" x="64.76" y="78.26" width="7.24" height="7.24" rx="1.31" ry="1.31"/>
    <rect class="cls-1" x="73.71" y="78.26" width="7.24" height="7.24" rx="1.31" ry="1.31"/>
    <rect class="cls-1" x="82.67" y="78.26" width="7.24" height="7.24" rx="1.31" ry="1.31"/>
    <rect class="cls-1" x="96.97" y="69.21" width="7.24" height="7.24" rx="1.31" ry="1.31"/>
    <rect class="cls-1" x="105.92" y="69.21" width="7.24" height="7.24" rx="1.31" ry="1.31"/>
    <rect class="cls-1" x="114.88" y="69.21" width="7.24" height="7.24" rx="1.31" ry="1.31"/>
    <rect class="cls-1" x="96.97" y="78.26" width="7.24" height="7.24" rx="1.31" ry="1.31"/>
    <rect class="cls-1" x="105.92" y="78.26" width="7.24" height="7.24" rx="1.31" ry="1.31"/>
    <rect class="cls-1" x="114.88" y="78.26" width="7.24" height="7.24" rx="1.31" ry="1.31"/>
    <rect class="cls-1" x="39.65" y="54.54" width="7.24" height="7.24" rx="1.31" ry="1.31"/>
    <rect class="cls-1" x="48.61" y="54.54" width="7.24" height="7.24" rx="1.31" ry="1.31"/>
    <rect class="cls-1" x="66.52" y="54.54" width="7.24" height="7.24" rx="1.31" ry="1.31"/>
    <rect class="cls-1" x="75.48" y="54.54" width="7.24" height="7.24" rx="1.31" ry="1.31"/>
    <rect class="cls-1" x="84.43" y="54.54" width="7.24" height="7.24" rx="1.31" ry="1.31"/>
    <rect class="cls-1" x="93.39" y="54.54" width="7.24" height="7.24" rx="1.31" ry="1.31"/>
    <rect class="cls-1" x="102.35" y="54.54" width="7.24" height="7.24" rx="1.31" ry="1.31"/>
  </g>
</svg>